<?xml version="1.0" encoding="UTF-8"?>
<svg id="Layer_2" data-name="Layer 2" xmlns="http://www.w3.org/2000/svg" viewBox="0 0 253.83 120.47">
  <defs>
    <style>
      .cls-1 {
        fill: #9ebab9;
      }

      .cls-2 {
        fill: #d5dfe2;
      }

      .cls-3 {
        fill: #c5d1d3;
      }

      .cls-4 {
        fill: #83eae4;
      }
    </style>
  </defs>
  <g id="Plane">
    <g>
      <path class="cls-2" d="M0,6.59h30.23l24.17,25.22h151.25c7.32,0,14.47,2.19,20.53,6.28l23.37,15.76c5.06,3.41,5.75,10.58,1.43,14.89l-3.49,3.49c-2.53,2.53-5.96,3.95-9.54,3.95H65.72c-10.6,0-20.52-5.19-26.57-13.88L0,6.59Z"/>
      <polygon class="cls-1" points="24.45 41.38 47.35 41.38 31.16 57.57 0 57.57 24.45 41.38"/>
      <polygon class="cls-1" points="121.22 31.81 96.75 0 105.04 0 166.4 31.81 121.22 31.81"/>
      <path class="cls-3" d="M124.31,64.38h38.74c1.88,0,2.87,2.22,1.62,3.62l-43.16,48.35c-2.34,2.63-5.7,4.13-9.21,4.13h-4.66c-1.47,0-2.52-1.44-2.07-2.84l16.67-51.75c.29-.9,1.13-1.51,2.07-1.51Z"/>
      <path class="cls-4" d="M226.19,38.09h-32.72c-2.49,0-3.51,3.2-1.47,4.64l16.48,9.74h39.05l-21.33-14.38Z"/>
      <circle class="cls-4" cx="179.83" cy="48.91" r="5.54"/>
      <circle class="cls-4" cx="157.69" cy="48.91" r="5.54"/>
      <circle class="cls-4" cx="135.54" cy="48.91" r="5.54"/>
      <circle class="cls-4" cx="113.4" cy="48.91" r="5.54"/>
      <circle class="cls-4" cx="91.25" cy="48.91" r="5.54"/>
      <circle class="cls-4" cx="69.11" cy="48.91" r="5.54"/>
    </g>
  </g>
</svg>