<?xml version="1.0" encoding="UTF-8"?>
<svg id="Layer_2" data-name="Layer 2" xmlns="http://www.w3.org/2000/svg" viewBox="0 0 197.8 93.12">
  <defs>
    <style>
      .cls-1 {
        fill: #6b7272;
      }

      .cls-2 {
        fill: #acbbbc;
      }

      .cls-3 {
        fill: #db3131;
      }

      .cls-4 {
        fill: #363c3d;
      }

      .cls-5 {
        fill: #cecca7;
      }

      .cls-6 {
        fill: #a53838;
      }

      .cls-7 {
        fill: #57cec8;
      }
    </style>
  </defs>
  <g id="Car">
    <g>
      <path class="cls-6" d="M9.88,74.77h178.06c5.96,0,10.63-5.27,9.76-11.17-2.12-14.24-9.75-25.27-28.74-27.55-3.59-.43-6.75-2.68-8.05-6.05C154.77,14.15,128.17-2.13,98.39.23c-29.62,2.34-46.3,14.62-52.02,30.88-1.26,3.58-4.36,6.23-8.13,6.61-18.22,1.86-31.98,11.14-37.39,23.26-2.89,6.48,1.93,13.78,9.03,13.78Z"/>
      <g>
        <circle class="cls-4" cx="37.55" cy="73.92" r="19.2"/>
        <circle class="cls-2" cx="37.55" cy="73.92" r="12.56"/>
        <circle class="cls-1" cx="37.55" cy="73.92" r="7.01"/>
      </g>
      <g>
        <circle class="cls-4" cx="160.03" cy="73.92" r="19.2"/>
        <circle class="cls-2" cx="160.03" cy="73.92" r="12.56"/>
        <circle class="cls-1" cx="160.03" cy="73.92" r="7.01"/>
      </g>
      <path class="cls-7" d="M56.75,35.55c-.12-13.36,15.61-26.24,31.52-26.24v26.24h-31.52Z"/>
      <path class="cls-7" d="M152.34,35.55c.12-13.36-20.54-30.3-54.67-26.24v26.24h54.67Z"/>
      <path class="cls-5" d="M13.84,46.1s1.12,4.06,5.82,4.44c0,0,.14,6.12-15.09,4.19,1.71-3.06,7.45-7.47,9.27-8.63Z"/>
      <path class="cls-3" d="M188.36,44.08s1.27,5.33,1.27,10.65h5.8c-1.28-4.99-5.54-9.33-7.07-10.65Z"/>
    </g>
  </g>
</svg>