<?xml version="1.0" encoding="UTF-8"?>
<svg id="Layer_2" data-name="Layer 2" xmlns="http://www.w3.org/2000/svg" xmlns:xlink="http://www.w3.org/1999/xlink" viewBox="0 0 1442.06 1024.65">
  <defs>
    <style>
      .cls-1 {
        fill: #d1e2f2;
      }

      .cls-2 {
        fill: #798f9b;
      }

      .cls-3 {
        fill: #6477e2;
      }

      .cls-4 {
        fill: #a32e2e;
      }

      .cls-5 {
        fill: #8f989e;
      }

      .cls-6 {
        fill: #936c5f;
      }

      .cls-7 {
        fill: url(#linear-gradient-2);
      }

      .cls-8 {
        fill: #a0765a;
      }

      .cls-9 {
        fill: #597287;
      }

      .cls-10 {
        fill: #8b999e;
      }

      .cls-11 {
        fill: #2f48a5;
      }

      .cls-12 {
        fill: url(#linear-gradient);
      }

      .cls-13 {
        fill: #3c46bf;
      }

      .cls-14 {
        fill: #ddd;
      }

      .cls-15 {
        fill: none;
        stroke-linecap: round;
      }

      .cls-15, .cls-16 {
        stroke: #0c0c0c;
        stroke-miterlimit: 10;
        stroke-width: 2px;
      }

      .cls-17 {
        fill: #995f52;
      }

      .cls-18 {
        fill: #659de0;
      }

      .cls-19, .cls-16 {
        fill: #fff;
      }

      .cls-20 {
        fill: #cfe8e7;
      }

      .cls-21 {
        fill: #755f50;
      }

      .cls-22 {
        fill: #ffe861;
      }

      .cls-23 {
        fill: #d6bc4d;
      }

      .cls-24 {
        fill: #edcfbc;
      }

      .cls-25 {
        fill: #637882;
      }

      .cls-26 {
        fill: #f0f7ff;
      }

      .cls-27 {
        fill: #ceb7a5;
      }

      .cls-28 {
        fill: #0c0c0c;
      }

      .cls-29 {
        fill: #b4c5d3;
      }

      .cls-30 {
        fill: #3caa69;
      }

      .cls-31 {
        fill: #ead0d0;
      }

      .cls-32 {
        fill: #687b8e;
      }

      .cls-33 {
        fill: #71e2df;
      }

      .cls-34 {
        fill: #b6c6c5;
      }

      .cls-35 {
        fill: #86efef;
      }

      .cls-36 {
        fill: #724841;
      }

      .cls-37 {
        fill: #e5d1d1;
      }

      .cls-38 {
        fill: #7a4420;
      }

      .cls-39 {
        fill: #363c44;
      }

      .cls-40 {
        fill: #72ddda;
      }

      .cls-41 {
        fill: #cea691;
      }
    </style>
    <linearGradient id="linear-gradient" x1="543.66" y1="164.78" x2="543.66" y2="761.35" gradientUnits="userSpaceOnUse">
      <stop offset="0" stop-color="#69bacc"/>
      <stop offset=".37" stop-color="#6cbbcd"/>
      <stop offset=".71" stop-color="#77c1d1"/>
      <stop offset="1" stop-color="#88c9d8"/>
    </linearGradient>
    <linearGradient id="linear-gradient-2" x1="1325.5" y1="164.78" x2="1325.5" y2="761.35" xlink:href="#linear-gradient"/>
  </defs>
  <g id="Backdrop">
    <g id="Character">
      <g>
        <rect class="cls-40" width="1442.06" height="1024.65"/>
        <path class="cls-26" d="M18.06,140.45c0-10.92,14.68-24.47,24.85-21.46-1.13-13.93,21.84-28.99,40.28-15.81.75-19.2,39.15-18.82,42.16-.75,9.79-7.53,37.27-1.13,36.52,15.81,13.55-4.89,27.86,5.27,26.73,22.21H18.06Z"/>
        <path class="cls-1" d="M260.88,214.99c0-13.55,18.22-30.36,30.83-26.62-1.4-17.28,27.09-35.97,49.98-19.62.93-23.82,48.58-23.35,52.31-.93,12.14-9.34,46.24-1.4,45.31,19.62,16.82-6.07,34.56,6.54,33.16,27.56h-211.59Z"/>
        <path class="cls-26" d="M899.19,220.63c0-19,27.74-42.6,46.95-37.35-2.13-24.25,41.26-50.46,76.11-27.52,1.42-33.42,73.98-32.77,79.67-1.31,18.49-13.11,70.42-1.97,69,27.52,25.61-8.52,52.64,9.17,50.5,38.66h-322.23Z"/>
        <path class="cls-26" d="M422.86,234.56c-5.65-19.58,20.33-58.45,60.99-35.29,3.39-28.8,63.25-33.88,68.33,1.69,21.18-22.87,66.07,6.78,57.88,33.6h-187.2Z"/>
        <path class="cls-1" d="M806.92,133.77c-4.46-15.47,16.07-46.19,48.2-27.89,2.68-22.76,49.98-26.78,54,1.34,16.74-18.07,52.21,5.36,45.74,26.55h-147.94Z"/>
        <circle class="cls-22" cx="1349.92" cy="110.61" r="70.02"/>
        <g>
          <polygon class="cls-12" points="933.16 412.74 870.48 412.74 870.48 322.95 766.58 322.95 766.58 260.27 632.74 260.27 632.74 348.36 492.13 348.36 492.13 402.57 388.79 402.57 388.79 336.5 232.93 336.5 232.93 424.6 149.92 424.6 149.92 380.55 0 380.55 0 746.48 149.92 746.48 232.93 746.48 260.88 746.48 388.79 746.48 492.13 746.48 632.74 746.48 766.58 746.48 870.48 746.48 933.16 746.48 955.64 746.48 1087.33 746.48 1087.33 295.84 933.16 295.84 933.16 412.74"/>
          <polygon class="cls-7" points="1349.92 372.08 1349.92 295.84 1211 295.84 1211 746.48 1343.14 746.48 1349.92 746.48 1440 746.48 1440 372.08 1349.92 372.08"/>
        </g>
        <rect class="cls-10" y="746.48" width="1440" height="80.74"/>
        <rect class="cls-30" x="0" y="827.22" width="1440" height="196.78"/>
        <rect class="cls-8" x="705.59" y="392.96" width="187.48" height="353.51"/>
        <rect class="cls-17" x="893.07" y="454.48" width="175.06" height="292"/>
        <rect class="cls-2" x="1068.13" y="317.13" width="178.97" height="429.35"/>
        <rect class="cls-9" x="1247.1" y="583.77" width="192.9" height="162.71"/>
        <rect class="cls-20" x="1247.1" y="583.49" width="192.9" height="7.62"/>
        <rect class="cls-20" x="1247.1" y="675.99" width="192.9" height="7.62"/>
        <rect class="cls-5" x="1247.1" y="576.42" width="192.9" height="7.62"/>
        <g>
          <rect class="cls-35" x="726.76" y="431.08" width="32.19" height="77.93"/>
          <rect class="cls-20" x="723.66" y="426" width="38.4" height="7.91"/>
          <rect class="cls-34" x="723.66" y="503.37" width="38.4" height="5.57"/>
          <rect class="cls-34" x="726.76" y="451.54" width="32.19" height="3.66"/>
        </g>
        <g>
          <rect class="cls-35" x="783.24" y="431.08" width="32.19" height="77.93"/>
          <rect class="cls-20" x="780.13" y="426" width="38.4" height="7.91"/>
          <rect class="cls-34" x="780.13" y="503.37" width="38.4" height="5.57"/>
          <rect class="cls-34" x="783.24" y="451.54" width="32.19" height="3.66"/>
        </g>
        <g>
          <rect class="cls-35" x="839.71" y="431.08" width="32.19" height="77.93"/>
          <rect class="cls-20" x="836.6" y="426" width="38.4" height="7.91"/>
          <rect class="cls-34" x="836.6" y="503.37" width="38.4" height="5.57"/>
          <rect class="cls-34" x="839.71" y="451.54" width="32.19" height="3.66"/>
        </g>
        <g>
          <rect class="cls-35" x="726.76" y="542.89" width="32.19" height="77.93"/>
          <rect class="cls-20" x="723.66" y="537.81" width="38.4" height="7.91"/>
          <rect class="cls-34" x="723.66" y="615.18" width="38.4" height="5.57"/>
          <rect class="cls-34" x="726.76" y="563.35" width="32.19" height="3.66"/>
        </g>
        <g>
          <rect class="cls-35" x="783.24" y="542.89" width="32.19" height="77.93"/>
          <rect class="cls-20" x="780.13" y="537.81" width="38.4" height="7.91"/>
          <rect class="cls-34" x="780.13" y="615.18" width="38.4" height="5.57"/>
          <rect class="cls-34" x="783.24" y="563.35" width="32.19" height="3.66"/>
        </g>
        <g>
          <rect class="cls-35" x="839.71" y="542.89" width="32.19" height="77.93"/>
          <rect class="cls-20" x="836.6" y="537.81" width="38.4" height="7.91"/>
          <rect class="cls-34" x="836.6" y="615.18" width="38.4" height="5.57"/>
          <rect class="cls-34" x="839.71" y="563.35" width="32.19" height="3.66"/>
        </g>
        <g>
          <rect class="cls-35" x="726.76" y="654.7" width="32.19" height="77.93"/>
          <rect class="cls-20" x="723.66" y="649.62" width="38.4" height="7.91"/>
          <rect class="cls-34" x="723.66" y="726.99" width="38.4" height="5.57"/>
          <rect class="cls-34" x="726.76" y="675.17" width="32.19" height="3.66"/>
        </g>
        <g>
          <rect class="cls-35" x="783.24" y="654.7" width="32.19" height="77.93"/>
          <rect class="cls-20" x="780.13" y="649.62" width="38.4" height="7.91"/>
          <rect class="cls-34" x="780.13" y="726.99" width="38.4" height="5.57"/>
          <rect class="cls-34" x="783.24" y="675.17" width="32.19" height="3.66"/>
        </g>
        <g>
          <rect class="cls-35" x="839.71" y="654.7" width="32.19" height="77.93"/>
          <rect class="cls-20" x="836.6" y="649.62" width="38.4" height="7.91"/>
          <rect class="cls-34" x="836.6" y="726.99" width="38.4" height="5.57"/>
          <rect class="cls-34" x="839.71" y="675.17" width="32.19" height="3.66"/>
        </g>
        <rect class="cls-14" x="705.59" y="392.96" width="187.48" height="15.44"/>
        <g>
          <rect class="cls-20" x="910.76" y="483.88" width="139.67" height="28.12"/>
          <rect class="cls-33" x="913.77" y="487.18" width="133.66" height="21.53"/>
        </g>
        <g>
          <rect class="cls-20" x="910.76" y="531.66" width="139.67" height="28.12"/>
          <rect class="cls-33" x="913.77" y="534.95" width="133.66" height="21.53"/>
        </g>
        <g>
          <rect class="cls-20" x="910.76" y="579.43" width="139.67" height="28.12"/>
          <rect class="cls-33" x="913.77" y="582.73" width="133.66" height="21.53"/>
        </g>
        <g>
          <rect class="cls-20" x="910.76" y="627.21" width="139.67" height="28.12"/>
          <rect class="cls-33" x="913.77" y="630.5" width="133.66" height="21.53"/>
        </g>
        <g>
          <g>
            <rect class="cls-20" x="934.1" y="698.33" width="68.17" height="28.12" transform="translate(255.79 1680.58) rotate(-90)"/>
            <rect class="cls-33" x="935.57" y="701.63" width="65.23" height="21.53" transform="translate(255.79 1680.58) rotate(-90)"/>
          </g>
          <g>
            <rect class="cls-20" x="958.93" y="698.33" width="68.17" height="28.12" transform="translate(280.62 1705.41) rotate(-90)"/>
            <rect class="cls-33" x="960.4" y="701.63" width="65.23" height="21.53" transform="translate(280.62 1705.41) rotate(-90)"/>
          </g>
        </g>
        <rect class="cls-25" x="1087.26" y="340.14" width="140.71" height="405.51"/>
        <g>
          <g>
            <rect class="cls-20" x="1097.19" y="358.42" width="33.32" height="55.34"/>
            <rect class="cls-33" x="1101.28" y="358.42" width="25.13" height="55.34"/>
          </g>
          <g>
            <rect class="cls-20" x="1140.96" y="358.42" width="33.32" height="55.34"/>
            <rect class="cls-33" x="1145.05" y="358.42" width="25.13" height="55.34"/>
          </g>
          <g>
            <rect class="cls-20" x="1184.72" y="358.42" width="33.32" height="55.34"/>
            <rect class="cls-33" x="1188.81" y="358.42" width="25.13" height="55.34"/>
          </g>
        </g>
        <g>
          <g>
            <rect class="cls-20" x="1097.19" y="439.89" width="33.32" height="55.34"/>
            <rect class="cls-33" x="1101.28" y="439.89" width="25.13" height="55.34"/>
          </g>
          <g>
            <rect class="cls-20" x="1140.96" y="439.89" width="33.32" height="55.34"/>
            <rect class="cls-33" x="1145.05" y="439.89" width="25.13" height="55.34"/>
          </g>
          <g>
            <rect class="cls-20" x="1184.72" y="439.89" width="33.32" height="55.34"/>
            <rect class="cls-33" x="1188.81" y="439.89" width="25.13" height="55.34"/>
          </g>
        </g>
        <g>
          <g>
            <rect class="cls-20" x="1097.19" y="521.36" width="33.32" height="55.34"/>
            <rect class="cls-33" x="1101.28" y="521.36" width="25.13" height="55.34"/>
          </g>
          <g>
            <rect class="cls-20" x="1140.96" y="521.36" width="33.32" height="55.34"/>
            <rect class="cls-33" x="1145.05" y="521.36" width="25.13" height="55.34"/>
          </g>
          <g>
            <rect class="cls-20" x="1184.72" y="521.36" width="33.32" height="55.34"/>
            <rect class="cls-33" x="1188.81" y="521.36" width="25.13" height="55.34"/>
          </g>
        </g>
        <g>
          <g>
            <rect class="cls-20" x="1097.19" y="602.83" width="33.32" height="55.34"/>
            <rect class="cls-33" x="1101.28" y="602.83" width="25.13" height="55.34"/>
          </g>
          <g>
            <rect class="cls-20" x="1140.96" y="602.83" width="33.32" height="55.34"/>
            <rect class="cls-33" x="1145.05" y="602.83" width="25.13" height="55.34"/>
          </g>
          <g>
            <rect class="cls-20" x="1184.72" y="602.83" width="33.32" height="55.34"/>
            <rect class="cls-33" x="1188.81" y="602.83" width="25.13" height="55.34"/>
          </g>
        </g>
        <g>
          <rect class="cls-20" x="1097.19" y="681.59" width="33.32" height="55.34"/>
          <rect class="cls-33" x="1101.28" y="681.59" width="25.13" height="55.34"/>
        </g>
        <g>
          <rect class="cls-20" x="1140.96" y="681.59" width="33.32" height="64.33"/>
          <rect class="cls-33" x="1145.05" y="686.79" width="25.13" height="59.68"/>
        </g>
        <g>
          <rect class="cls-20" x="1184.72" y="681.59" width="33.32" height="55.34"/>
          <rect class="cls-33" x="1188.81" y="681.59" width="25.13" height="55.34"/>
        </g>
        <g>
          <rect class="cls-20" x="1271.41" y="610.77" width="48.09" height="57.6"/>
          <rect class="cls-33" x="1274.36" y="614.31" width="42.19" height="50.53"/>
        </g>
        <g>
          <rect class="cls-20" x="1319.5" y="610.77" width="48.09" height="57.6"/>
          <rect class="cls-33" x="1322.45" y="614.31" width="42.19" height="50.53"/>
        </g>
        <g>
          <rect class="cls-20" x="1367.6" y="610.77" width="48.09" height="57.6"/>
          <rect class="cls-33" x="1370.55" y="614.31" width="42.19" height="50.53"/>
        </g>
        <g>
          <rect class="cls-20" x="1367.6" y="695.76" width="48.09" height="41.8"/>
          <rect class="cls-33" x="1370.55" y="698.32" width="42.19" height="36.67"/>
        </g>
        <g>
          <rect class="cls-20" x="1271.41" y="695.76" width="48.09" height="41.8"/>
          <rect class="cls-33" x="1274.36" y="698.32" width="42.19" height="36.67"/>
        </g>
        <rect class="cls-20" x="1325.29" y="695.76" width="36.51" height="50.72"/>
        <rect class="cls-6" x="1328.16" y="698.87" width="30.78" height="47.61"/>
        <rect class="cls-33" x="1331.22" y="702.81" width="24.66" height="9.22"/>
        <rect class="cls-36" x="918.96" y="388.18" width="24.65" height="66.3"/>
        <rect class="cls-36" x="953.69" y="367.14" width="22.96" height="87.35"/>
        <rect class="cls-34" x="916.04" y="382.54" width="30.49" height="10.43"/>
        <rect class="cls-34" x="949.92" y="362.64" width="30.49" height="10.43"/>
        <g>
          <rect class="cls-32" x="355.57" y="450.57" width="204.99" height="295.91"/>
          <path class="cls-29" d="M551.47,367.55v36.06h-39.88v-36.06h-9.09v36.06h-39.88v-34.36h-9.09v34.36h-39.88v-32.67h-9.09v32.67h-39.88v-36.06h-9.09v378.93h204.99v-378.93h-9.09ZM502.49,412.7v28.78h-39.88v-28.78h39.88ZM413.64,688.07v-40.22h39.88v40.22h-39.88ZM453.52,697.16v40.22h-39.88v-40.22h39.88ZM453.52,499.89v40.22h-39.88v-40.22h39.88ZM413.64,490.8v-40.22h39.88v40.22h-39.88ZM453.52,549.21v40.22h-39.88v-40.22h39.88ZM453.52,598.52v40.22h-39.88v-40.22h39.88ZM462.61,647.84h39.88v40.22h-39.88v-40.22ZM462.61,638.75v-40.22h39.88v40.22h-39.88ZM462.61,589.43v-40.22h39.88v40.22h-39.88ZM462.61,540.11v-40.22h39.88v40.22h-39.88ZM462.61,490.8v-40.22h39.88v40.22h-39.88ZM453.52,412.7v28.78h-39.88v-28.78h39.88ZM364.67,412.7h39.88v28.78h-39.88v-28.78ZM364.67,450.57h39.88v40.22h-39.88v-40.22ZM364.67,499.89h39.88v40.22h-39.88v-40.22ZM364.67,549.21h39.88v40.22h-39.88v-40.22ZM364.67,598.52h39.88v40.22h-39.88v-40.22ZM364.67,647.84h39.88v40.22h-39.88v-40.22ZM364.67,697.16h39.88v40.22h-39.88v-40.22ZM462.61,737.38v-40.22h39.88v40.22h-39.88ZM551.47,737.38h-39.88v-40.22h39.88v40.22ZM551.47,688.07h-39.88v-40.22h39.88v40.22ZM551.47,638.75h-39.88v-40.22h39.88v40.22ZM551.47,589.43h-39.88v-40.22h39.88v40.22ZM551.47,540.11h-39.88v-40.22h39.88v40.22ZM551.47,490.8h-39.88v-40.22h39.88v40.22ZM551.47,441.48h-39.88v-28.78h39.88v28.78Z"/>
        </g>
        <g>
          <polygon class="cls-27" points="1127.03 746.48 866.33 746.48 856.07 589.49 1137.29 589.49 1127.03 746.48"/>
          <path class="cls-4" d="M1086.84,568.95l5.78-18.76h-47.64c0-15.33-21.62-27.76-48.3-27.76s-48.3,12.43-48.3,27.76h-45.39l5.78,18.76h-69.08l9.57,31.27h294.84l9.57-31.27h-66.83Z"/>
          <rect class="cls-21" x="890.51" y="667.98" width="49.13" height="78.49"/>
          <g>
            <path class="cls-4" d="M915.08,621.17s-.09,0-.13,0c.04.1.07.21.12.31,9.8,13.72,17.02,28.31,21.14,43.74h22.91c0-24.33-19.72-44.05-44.05-44.05Z"/>
            <path class="cls-4" d="M915.07,621.48c-.05-.1-.08-.21-.12-.31-24.27.07-43.92,19.76-43.92,44.04h25.3c3.47-15.58,6.25-32.08,18.74-43.74Z"/>
            <path class="cls-37" d="M915.07,621.48c-12.48,11.65-15.27,28.15-18.74,43.74h39.88c-4.12-15.43-11.34-30.01-21.14-43.74Z"/>
          </g>
          <rect class="cls-35" x="894.77" y="673.49" width="40.61" height="40.61"/>
          <rect class="cls-21" x="980.21" y="643.34" width="116.89" height="89.72"/>
          <rect class="cls-35" x="984.09" y="648.09" width="109.14" height="80.23"/>
          <rect class="cls-21" x="983.23" y="667.98" width="110.85" height="3.76"/>
          <g>
            <path class="cls-31" d="M927.84,580.63c-1.18,0-2.21-.18-3.09-.55-.88-.36-1.61-.86-2.18-1.5-.57-.64-1-1.39-1.29-2.25-.29-.86-.43-1.79-.43-2.78,0-.83.14-1.66.42-2.5.28-.84.72-1.6,1.32-2.28.6-.68,1.37-1.23,2.31-1.66.94-.43,2.06-.64,3.36-.64.71,0,1.38.05,2.01.15s1.3.25,2.03.44c.03.38.08.86.17,1.45s.2,1.16.36,1.72c-.07.01-.16.03-.27.05-.11.02-.2.03-.25.03-.11,0-.21-.02-.28-.05-.08-.04-.13-.11-.16-.22-.15-.46-.33-.85-.52-1.17-.2-.32-.43-.57-.7-.76-.27-.19-.59-.33-.96-.41-.36-.08-.79-.13-1.28-.13-.76,0-1.42.13-2.01.39-.58.26-1.07.63-1.46,1.11-.39.48-.69,1.06-.89,1.74-.2.68-.3,1.45-.3,2.3,0,.91.12,1.76.37,2.54.24.78.58,1.46,1.01,2.04s.93,1.02,1.52,1.34c.59.32,1.23.48,1.91.48.56,0,1.04-.05,1.44-.16.4-.11.74-.27,1.03-.48.29-.22.53-.49.73-.83.2-.34.39-.73.56-1.18.04-.11.11-.19.2-.24.09-.05.19-.07.28-.07.07,0,.16.01.26.03.1.02.19.05.26.07-.08.24-.17.51-.26.81-.09.3-.19.61-.28.92-.1.32-.19.63-.26.95-.08.32-.14.62-.2.91-.69.13-1.39.22-2.1.27s-1.5.08-2.35.08Z"/>
            <path class="cls-31" d="M934.31,573.55c0-.98.19-1.9.56-2.75.37-.85.88-1.6,1.52-2.25.64-.64,1.4-1.15,2.26-1.52.86-.37,1.78-.56,2.76-.56s1.95.18,2.81.53c.87.35,1.62.84,2.26,1.47s1.14,1.38,1.5,2.25c.36.87.55,1.81.55,2.83s-.19,1.9-.56,2.76c-.37.86-.88,1.61-1.52,2.25-.64.64-1.4,1.14-2.27,1.51-.87.37-1.79.56-2.77.56s-1.95-.17-2.81-.53c-.87-.35-1.62-.84-2.25-1.47s-1.13-1.38-1.49-2.24c-.36-.86-.55-1.81-.55-2.85ZM941.72,579.53c.59,0,1.12-.13,1.6-.39.48-.26.89-.61,1.23-1.06.34-.45.61-.97.8-1.58.19-.6.28-1.25.28-1.93,0-.99-.09-1.92-.28-2.77-.19-.85-.48-1.59-.86-2.21-.39-.62-.87-1.11-1.45-1.47-.58-.36-1.26-.54-2.03-.54-.49,0-.97.11-1.43.33-.46.22-.87.53-1.22.95-.35.41-.63.91-.84,1.5-.21.59-.31,1.25-.31,1.99,0,1.04.1,2,.3,2.88.2.88.5,1.64.88,2.28s.86,1.13,1.42,1.49c.56.36,1.2.54,1.91.54Z"/>
            <path class="cls-31" d="M951.84,568.3c0-.13-.02-.23-.05-.33-.03-.09-.11-.17-.22-.24-.11-.07-.27-.13-.46-.18-.2-.05-.45-.1-.76-.16-.14-.04-.21-.17-.21-.38v-.2c0-.06.01-.13.04-.2.6.04,1.13.07,1.6.08s.85.02,1.18.02h4.31c.64,0,1.19-.02,1.65-.06s.76-.06.91-.06.27.06.34.19c.04.11.08.32.1.62.03.3.08.61.15.93.04.24.09.47.15.69s.14.5.25.82c-.06.03-.13.06-.22.08-.09.03-.18.04-.26.04-.15,0-.26-.06-.31-.19-.17-.36-.33-.68-.49-.93s-.34-.47-.55-.63c-.2-.16-.44-.28-.71-.35-.27-.07-.61-.1-1-.1h-2.77v5.31h2.9c.24,0,.41-.12.51-.35.1-.23.19-.58.26-1.04.04-.18.18-.27.4-.27.04,0,.11,0,.2.01.09,0,.16.02.2.03-.03.32-.05.7-.07,1.12s-.03.79-.03,1.08c0,.25,0,.55.02.89.01.34.04.73.08,1.17-.04.03-.1.04-.19.05-.08,0-.15.01-.19.01-.24,0-.38-.1-.42-.29-.06-.45-.14-.79-.25-1.02-.11-.23-.29-.35-.52-.35h-2.9v4.7c0,.14.05.26.15.35.1.09.23.17.4.23.17.06.36.11.59.15s.46.07.71.12c.17.01.25.13.25.36,0,.04,0,.11-.01.21,0,.1-.02.17-.03.23-.2,0-.39,0-.59-.01-.2,0-.39-.02-.59-.03-.36-.03-.75-.05-1.17-.05-.41,0-.82-.01-1.23-.01-.2,0-.41,0-.64.01-.23,0-.47.02-.72.03s-.5.02-.75.03c-.25,0-.47.02-.68.03-.03-.06-.04-.13-.04-.22v-.2c0-.21.07-.32.21-.34.46-.11.83-.22,1.09-.33.27-.1.4-.3.4-.58v-10.52Z"/>
            <path class="cls-31" d="M963.88,568.3c0-.13-.02-.23-.05-.33-.03-.09-.11-.17-.22-.24-.11-.07-.27-.13-.46-.18-.2-.05-.45-.1-.76-.16-.14-.04-.21-.17-.21-.38v-.2c0-.06.01-.13.04-.2.6.04,1.13.07,1.6.08s.85.02,1.18.02h4.31c.64,0,1.19-.02,1.65-.06s.76-.06.91-.06.27.06.34.19c.04.11.08.32.1.62.03.3.08.61.15.93.04.24.09.47.15.69s.14.5.25.82c-.06.03-.13.06-.22.08-.09.03-.18.04-.26.04-.15,0-.26-.06-.31-.19-.17-.36-.33-.68-.49-.93s-.34-.47-.55-.63c-.2-.16-.44-.28-.71-.35-.27-.07-.61-.1-1-.1h-2.77v5.31h2.9c.24,0,.41-.12.51-.35.1-.23.19-.58.26-1.04.04-.18.18-.27.4-.27.04,0,.11,0,.2.01.09,0,.16.02.2.03-.03.32-.05.7-.07,1.12s-.03.79-.03,1.08c0,.25,0,.55.02.89.01.34.04.73.08,1.17-.04.03-.1.04-.19.05-.08,0-.15.01-.19.01-.24,0-.38-.1-.42-.29-.06-.45-.14-.79-.25-1.02-.11-.23-.29-.35-.52-.35h-2.9v4.7c0,.14.05.26.15.35.1.09.23.17.4.23.17.06.36.11.59.15s.46.07.71.12c.17.01.25.13.25.36,0,.04,0,.11-.01.21,0,.1-.02.17-.03.23-.2,0-.39,0-.59-.01-.2,0-.39-.02-.59-.03-.36-.03-.75-.05-1.17-.05-.41,0-.82-.01-1.23-.01-.2,0-.41,0-.64.01-.23,0-.47.02-.72.03s-.5.02-.75.03c-.25,0-.47.02-.68.03-.03-.06-.04-.13-.04-.22v-.2c0-.21.07-.32.21-.34.46-.11.83-.22,1.09-.33.27-.1.4-.3.4-.58v-10.52Z"/>
            <path class="cls-31" d="M978.55,567.77v5.06h2.96c.27,0,.45-.11.55-.33s.18-.57.25-1.06c.01-.11.06-.19.13-.22.07-.04.16-.05.27-.05.04,0,.11,0,.2.01.09,0,.16.02.2.03-.03.32-.05.7-.07,1.12s-.03.79-.03,1.08c0,.25,0,.55.02.89.01.34.04.73.08,1.17-.04.03-.11.04-.2.05-.09,0-.16.01-.2.01-.25,0-.39-.1-.4-.29-.08-.53-.18-.89-.28-1.08-.1-.19-.28-.28-.51-.28h-2.96v4.7c0,.29.18.49.55.59.36.1.98.15,1.85.15h.88c.42,0,.77-.06,1.06-.17.29-.11.54-.27.77-.47.22-.2.42-.44.59-.71.17-.27.34-.58.5-.91.04-.1.14-.15.29-.15.07,0,.15.02.25.06.1.04.2.08.29.13-.03.11-.06.22-.09.32-.04.1-.07.2-.09.29-.07.15-.13.32-.17.5-.04.18-.08.33-.13.44-.03.14-.06.3-.09.47-.04.17-.07.34-.1.5-.04.16-.07.3-.1.43-.04.13-.06.21-.07.25-.06.11-.17.17-.34.17-.11,0-.27,0-.48-.02s-.44-.02-.68-.03c-.25,0-.49-.02-.75-.03-.25-.01-.47-.02-.65-.02h-4.77c-.41,0-.87.01-1.4.03-.52.02-1,.05-1.42.07-.03-.06-.04-.13-.04-.22v-.2c0-.21.07-.32.21-.34.53-.1.91-.2,1.14-.31s.35-.31.35-.59v-10.52c0-.14-.02-.25-.06-.35-.04-.09-.12-.17-.24-.23-.12-.06-.27-.12-.46-.17s-.43-.1-.72-.16c-.14-.04-.21-.17-.21-.38v-.2c0-.06.01-.13.04-.2.6.04,1.13.07,1.6.08s.86.02,1.2.02h4.31c.63,0,1.17-.02,1.63-.06s.77-.06.93-.06c.15,0,.27.06.34.19.04.11.08.32.1.62.03.3.08.61.15.93.04.24.09.47.15.69s.14.5.25.82c-.07.03-.15.06-.23.08-.08.03-.17.04-.25.04-.15,0-.27-.06-.34-.19-.17-.36-.33-.68-.49-.93s-.34-.47-.55-.63c-.2-.16-.44-.28-.71-.35-.27-.07-.6-.1-.98-.1h-2.79Z"/>
            <path class="cls-31" d="M991.3,567.77v5.06h2.96c.27,0,.45-.11.55-.33s.18-.57.25-1.06c.01-.11.06-.19.13-.22.07-.04.16-.05.27-.05.04,0,.11,0,.2.01.09,0,.16.02.2.03-.03.32-.05.7-.07,1.12s-.03.79-.03,1.08c0,.25,0,.55.02.89.01.34.04.73.08,1.17-.04.03-.11.04-.2.05-.09,0-.16.01-.2.01-.25,0-.39-.1-.4-.29-.08-.53-.18-.89-.28-1.08-.1-.19-.28-.28-.51-.28h-2.96v4.7c0,.29.18.49.55.59.36.1.98.15,1.85.15h.88c.42,0,.77-.06,1.06-.17.29-.11.54-.27.77-.47.22-.2.42-.44.59-.71.17-.27.34-.58.5-.91.04-.1.14-.15.29-.15.07,0,.15.02.25.06.1.04.2.08.29.13-.03.11-.06.22-.09.32-.04.1-.07.2-.09.29-.07.15-.13.32-.17.5-.04.18-.08.33-.13.44-.03.14-.06.3-.09.47-.04.17-.07.34-.1.5-.04.16-.07.3-.1.43-.04.13-.06.21-.07.25-.06.11-.17.17-.34.17-.11,0-.27,0-.48-.02s-.44-.02-.68-.03c-.25,0-.49-.02-.75-.03-.25-.01-.47-.02-.65-.02h-4.77c-.41,0-.87.01-1.4.03-.52.02-1,.05-1.42.07-.03-.06-.04-.13-.04-.22v-.2c0-.21.07-.32.21-.34.53-.1.91-.2,1.14-.31s.35-.31.35-.59v-10.52c0-.14-.02-.25-.06-.35-.04-.09-.12-.17-.24-.23-.12-.06-.27-.12-.46-.17s-.43-.1-.72-.16c-.14-.04-.21-.17-.21-.38v-.2c0-.06.01-.13.04-.2.6.04,1.13.07,1.6.08s.86.02,1.2.02h4.31c.63,0,1.17-.02,1.63-.06s.77-.06.93-.06c.15,0,.27.06.34.19.04.11.08.32.1.62.03.3.08.61.15.93.04.24.09.47.15.69s.14.5.25.82c-.07.03-.15.06-.23.08-.08.03-.17.04-.25.04-.15,0-.27-.06-.34-.19-.17-.36-.33-.68-.49-.93s-.34-.47-.55-.63c-.2-.16-.44-.28-.71-.35-.27-.07-.6-.1-.98-.1h-2.79Z"/>
            <path class="cls-31" d="M1016.58,578.82c0,.14.01.25.03.35.02.09.08.17.17.24.09.07.22.13.4.18.17.05.41.09.7.14.14.03.21.15.21.36,0,.04,0,.1-.01.19,0,.08-.02.15-.03.21-.45-.03-.92-.05-1.43-.07-.5-.02-.95-.03-1.34-.03s-.86.01-1.38.03c-.51.02-.99.05-1.44.07-.03-.06-.04-.13-.04-.21v-.19c0-.22.07-.34.21-.36.29-.04.53-.09.7-.14s.3-.11.39-.18.14-.15.17-.24c.03-.09.04-.21.04-.35v-4.94h-5.67v4.94c0,.14.01.25.03.35.02.09.08.17.17.24.09.07.22.13.4.18.17.05.41.09.7.14.14.03.21.15.21.36,0,.04,0,.1-.01.19,0,.08-.02.15-.03.21-.45-.03-.93-.05-1.45-.07-.52-.02-.97-.03-1.37-.03s-.84.01-1.34.03c-.5.02-.98.05-1.43.07-.03-.06-.04-.13-.04-.21v-.19c0-.22.07-.34.21-.36.29-.04.53-.09.7-.14.17-.05.3-.11.39-.18s.14-.15.17-.24c.03-.09.04-.21.04-.35v-10.52c0-.14-.01-.25-.04-.35-.03-.09-.08-.17-.17-.24-.08-.07-.21-.13-.39-.18-.18-.05-.41-.09-.7-.14-.14-.04-.21-.16-.21-.36v-.19c0-.08.01-.16.04-.23.45.03.92.05,1.43.07.5.02.95.03,1.34.03s.85,0,1.37-.03c.52-.02,1-.04,1.45-.07.01.07.02.15.03.23,0,.08.01.15.01.19,0,.2-.07.32-.21.36-.29.04-.53.09-.7.14-.18.05-.31.11-.4.18-.09.07-.15.15-.17.24-.02.09-.03.21-.03.35v4.47h5.67v-4.47c0-.14-.01-.25-.04-.35-.03-.09-.08-.17-.17-.24-.08-.07-.21-.13-.39-.18-.18-.05-.41-.09-.7-.14-.14-.04-.21-.16-.21-.36v-.19c0-.08.01-.16.04-.23.45.03.93.05,1.44.07.51.02.97.03,1.38.03s.84,0,1.34-.03c.5-.02.98-.04,1.43-.07.01.07.02.15.03.23,0,.08.01.15.01.19,0,.2-.07.32-.21.36-.29.04-.53.09-.7.14-.18.05-.31.11-.4.18-.09.07-.15.15-.17.24-.02.09-.03.21-.03.35v10.52Z"/>
            <path class="cls-31" d="M1019.63,573.55c0-.98.19-1.9.56-2.75.37-.85.88-1.6,1.52-2.25.64-.64,1.4-1.15,2.26-1.52.86-.37,1.78-.56,2.76-.56s1.95.18,2.81.53c.87.35,1.62.84,2.26,1.47s1.14,1.38,1.5,2.25c.36.87.55,1.81.55,2.83s-.19,1.9-.56,2.76c-.37.86-.88,1.61-1.52,2.25-.64.64-1.4,1.14-2.27,1.51-.87.37-1.79.56-2.77.56s-1.95-.17-2.81-.53c-.87-.35-1.62-.84-2.25-1.47s-1.13-1.38-1.49-2.24c-.36-.86-.55-1.81-.55-2.85ZM1027.04,579.53c.59,0,1.12-.13,1.6-.39.48-.26.89-.61,1.23-1.06.34-.45.61-.97.8-1.58.19-.6.28-1.25.28-1.93,0-.99-.09-1.92-.28-2.77-.19-.85-.48-1.59-.86-2.21-.39-.62-.87-1.11-1.45-1.47-.58-.36-1.26-.54-2.03-.54-.49,0-.97.11-1.43.33-.46.22-.87.53-1.22.95-.35.41-.63.91-.84,1.5-.21.59-.31,1.25-.31,1.99,0,1.04.1,2,.3,2.88.2.88.5,1.64.88,2.28s.86,1.13,1.42,1.49c.56.36,1.2.54,1.91.54Z"/>
            <path class="cls-31" d="M1047.62,575.19c0,.8-.08,1.53-.25,2.19s-.46,1.24-.87,1.72c-.41.48-.97.86-1.66,1.12-.69.27-1.56.4-2.61.4-1.25,0-2.25-.14-3.01-.42-.76-.28-1.35-.66-1.76-1.14-.41-.48-.69-1.05-.83-1.7-.14-.65-.21-1.35-.21-2.09v-6.97c0-.29-.09-.5-.27-.62-.18-.12-.55-.21-1.11-.28-.15-.03-.23-.16-.23-.4v-.17c0-.07.01-.14.04-.21.41.03.84.05,1.29.07.46.02,1,.03,1.63.03.49,0,1,0,1.53-.03.53-.02,1.01-.04,1.43-.07.01.07.02.14.03.21,0,.07,0,.13,0,.17,0,.24-.08.37-.23.4-.57.07-.96.17-1.17.29s-.3.33-.3.61v6.51c0,1.46.27,2.56.81,3.32s1.47,1.13,2.78,1.13,2.3-.35,2.87-1.06c.57-.71.85-1.86.85-3.45v-6.45c0-.28-.1-.48-.29-.61-.2-.13-.57-.22-1.11-.29-.17-.04-.25-.18-.25-.4,0-.04,0-.1,0-.17,0-.07.02-.14.03-.21.41.04.78.07,1.12.08.34.01.71.02,1.1.02.45,0,.85,0,1.2-.02.35-.01.69-.04,1.03-.08.01.07.03.14.03.21,0,.07,0,.13,0,.17,0,.22-.08.36-.25.4-.52.06-.88.15-1.07.28-.2.13-.29.34-.29.62v6.89Z"/>
            <path class="cls-31" d="M1059.13,570.13c-.13.04-.26.06-.4.06-.2,0-.34-.04-.42-.12-.08-.08-.14-.16-.17-.24-.32-.8-.74-1.37-1.25-1.72-.51-.35-1.19-.53-2.05-.53-.67,0-1.24.17-1.71.49-.47.33-.7.83-.7,1.5,0,.52.18.93.54,1.25.36.32.81.59,1.34.83.54.24,1.12.47,1.74.69.62.22,1.2.5,1.74.84s.99.76,1.34,1.28c.36.52.54,1.18.54,2,0,.53-.09,1.05-.27,1.55-.18.5-.47.95-.86,1.33-.39.39-.89.69-1.49.92-.6.23-1.32.35-2.16.35-.92,0-1.75-.1-2.48-.3-.73-.2-1.33-.42-1.81-.65-.04-.6-.11-1.19-.2-1.77-.09-.58-.19-1.14-.3-1.69.14-.06.3-.08.48-.08.17,0,.29.03.38.09.08.06.15.17.21.33.18.53.38.99.61,1.38.22.38.48.7.78.94.29.25.63.42,1.02.54s.83.17,1.33.17c.43,0,.8-.06,1.11-.18s.56-.28.76-.47.34-.43.44-.69.15-.54.15-.82c0-.6-.17-1.08-.51-1.42s-.77-.63-1.28-.86c-.51-.23-1.06-.45-1.66-.65s-1.15-.46-1.66-.78-.94-.72-1.28-1.22c-.34-.5-.51-1.17-.51-2.01,0-.56.1-1.08.3-1.57.2-.48.5-.9.89-1.26.39-.36.86-.64,1.42-.85.55-.21,1.19-.32,1.9-.32.59,0,1.18.06,1.77.19s1.27.34,2.03.63c.03.42.07.89.14,1.42.06.52.14,1,.22,1.42Z"/>
            <path class="cls-31" d="M1065.72,567.77v5.06h2.96c.27,0,.45-.11.55-.33.1-.22.18-.57.25-1.06.01-.11.06-.19.13-.22.07-.04.16-.05.27-.05.04,0,.11,0,.2.01.09,0,.16.02.2.03-.03.32-.05.7-.07,1.12-.02.43-.03.79-.03,1.08,0,.25,0,.55.02.89.01.34.04.73.08,1.17-.04.03-.11.04-.2.05-.09,0-.16.01-.2.01-.25,0-.38-.1-.4-.29-.08-.53-.18-.89-.28-1.08-.1-.19-.28-.28-.51-.28h-2.96v4.7c0,.29.18.49.55.59.36.1.98.15,1.85.15h.88c.42,0,.77-.06,1.06-.17s.54-.27.77-.47c.22-.2.42-.44.59-.71.17-.27.34-.58.5-.91.04-.1.14-.15.29-.15.07,0,.15.02.25.06s.2.08.29.13c-.03.11-.06.22-.09.32-.04.1-.07.2-.09.29-.07.15-.13.32-.17.5-.04.18-.08.33-.13.44-.03.14-.06.3-.09.47-.04.17-.07.34-.11.5s-.07.3-.1.43-.06.21-.07.25c-.06.11-.17.17-.34.17-.11,0-.27,0-.48-.02-.21-.01-.44-.02-.68-.03-.25,0-.49-.02-.75-.03-.25-.01-.47-.02-.65-.02h-4.77c-.41,0-.87.01-1.4.03-.53.02-1,.05-1.42.07-.03-.06-.04-.13-.04-.22v-.2c0-.21.07-.32.21-.34.53-.1.91-.2,1.14-.31.23-.11.35-.31.35-.59v-10.52c0-.14-.02-.25-.06-.35-.04-.09-.12-.17-.24-.23-.12-.06-.27-.12-.46-.17-.19-.05-.43-.1-.72-.16-.14-.04-.21-.17-.21-.38v-.2c0-.06.01-.13.04-.2.6.04,1.13.07,1.6.08.46.01.86.02,1.2.02h4.31c.63,0,1.17-.02,1.63-.06s.77-.06.93-.06c.15,0,.27.06.34.19.04.11.08.32.11.62.03.3.08.61.15.93.04.24.09.47.15.69.06.22.14.5.25.82-.07.03-.15.06-.23.08-.08.03-.17.04-.25.04-.15,0-.27-.06-.34-.19-.17-.36-.33-.68-.49-.93-.16-.26-.34-.47-.55-.63-.2-.16-.44-.28-.71-.35-.27-.07-.6-.1-.98-.1h-2.79Z"/>
          </g>
        </g>
        <path class="cls-39" d="M1161.74,608.28l.34,1.69,1.83,9.22c-.5-.15-1.04-.2-1.58-.09-1.77.35-2.92,2.07-2.56,3.84s2.07,2.92,3.84,2.56,2.92-2.07,2.56-3.84l-2.39-12.02,8.27-1.64,1.83,9.22c-.5-.15-1.04-.2-1.58-.09-1.77.35-2.92,2.07-2.56,3.84s2.07,2.92,3.84,2.56,2.92-2.07,2.56-3.84l-2.39-12.02-.34-1.69-11.66,2.32Z"/>
        <path class="cls-39" d="M1169.1,634.86l-4.56-1.03-1.69-.38-.48,2.15-1.58,7.02c-.39-.34-.87-.61-1.41-.73-1.76-.4-3.51.71-3.9,2.47-.4,1.76.71,3.51,2.47,3.9s3.51-.71,3.9-2.47l2.23-9.91c1.08,0,2.7-.2,5.02-1.02Z"/>
        <path class="cls-23" d="M1036.48,1024.65c0-198.6,181.58-359.6,405.58-359.6v359.6h-405.58Z"/>
        <g>
          <path class="cls-41" d="M1200.6,836.19c-6.4-2.33-27.17-.2-24.85,20.26,1.88,16.56,12.99,25.6,12.99,25.6l11.86-45.86Z"/>
          <rect class="cls-41" x="1267.83" y="953.49" width="33.1" height="18.64"/>
          <path class="cls-24" d="M1377.7,875.79c0,53.8-14.02,85.32-95.68,85.32s-94.03-31.53-94.03-85.32,42.47-97.41,94.86-97.41,94.86,43.61,94.86,97.41Z"/>
          <path class="cls-11" d="M1367.71,840.83c-12.71-14.4-37.63-37.18-104.19-34.73-62.92,2.31-56.89,14.02-64.3,23.75-27.11-13.55-50.9-26.3-6.85-32.23,44.05-5.93,129.3-13.8,159.24,17.69,13.65,14.35,14.97,25.23,16.1,25.51Z"/>
          <ellipse class="cls-13" cx="1319.01" cy="770.61" rx="12.96" ry="18.35" transform="translate(255.02 1866.76) rotate(-76.15)"/>
          <path class="cls-3" d="M1376.41,851.84c5.36-35.33-4.42-71.53-60.33-82.82-55.91-11.29-97.07,2.27-106.98,26.55,27.92-1.13,106.49-1.01,128.44,16.37,27.11,21.46,38.87,39.91,38.87,39.91Z"/>
          <path class="cls-24" d="M1356.37,860.31c4.52-10.73,17.98-34.01,41.79-19.48,25.6,15.62,3.01,40.47,0,48.85-1.13,7.91,4.52,38.4-35.58,27.67l-6.21-57.04Z"/>
          <path class="cls-18" d="M1355.59,1024h-142.43l19.85-42.8c2.54-5.48,8.72-9.08,15.59-9.08h71.55c6.87,0,13.05,3.6,15.59,9.08l19.85,42.8Z"/>
          <path class="cls-38" d="M1286.03,825.58c12.96-3.46,38.27-3.9,44.61,10.61-6.23-5.06-13.68-6.01-21.28-7.18-7.75-1.12-15.59-1.5-23.33-3.43h0Z"/>
          <path class="cls-38" d="M1254.71,825.58c-7.74,1.93-15.58,2.31-23.33,3.43-7.6,1.17-15.05,2.12-21.28,7.18,6.29-14.48,31.68-14.08,44.61-10.61h0Z"/>
          <circle cx="1233.23" cy="863.68" r="12.4"/>
          <circle class="cls-19" cx="1234.32" cy="860.66" r="9.38"/>
          <circle cx="1307.02" cy="865" r="12.4"/>
          <circle class="cls-19" cx="1308.11" cy="861.98" r="9.38"/>
          <path class="cls-15" d="M1228.72,900.31c2.71,2.99,3.01,6.4,14.68,6.4s64.75,1.13,67.2,0,9.94-.38,11.09-7.91"/>
          <path class="cls-28" d="M1315.4,895.42c5.21.35,11.48,4.13,10.87,10.02-2.22-4.9-6.81-6.94-10.87-10.02h0Z"/>
          <path class="cls-16" d="M1313,907.21c0,11.66-14.64,21.02-34.48,21.02s-34.89-6.7-39.25-21.02h73.73Z"/>
          <path class="cls-15" d="M1244.63,916.73c4.98,1.6,50.93,3.77,66.62-2.73"/>
          <path class="cls-41" d="M1366.81,867.54c-1.32-12.37,13.68-18.79,24.14-16.75,4.71.78,8.51,4.79,9.36,9.44.38,2.14.56,4.57-.56,6.51.73-5.76-3.3-12.39-9.32-13.11-9.61-1.26-22.1,3.1-23.62,13.91h0Z"/>
          <path class="cls-41" d="M1366.81,865.2c5.87-4.92,14.26-1.23,15.91,5.91-1.23-1.1-2.33-2.18-3.49-3.12-3.56-3.05-7.88-3.48-12.42-2.79h0Z"/>
          <path class="cls-41" d="M1365.49,881.04c4.89,3.95,19.72,9.98,17.02,18.45-2.71,8.47-12.5,4.14-13.91.75,3.67-10.35-.28-10.73-3.1-19.2Z"/>
        </g>
      </g>
    </g>
  </g>
</svg>