<?xml version="1.0" encoding="UTF-8"?>
<svg id="Layer_2" data-name="Layer 2" xmlns="http://www.w3.org/2000/svg" viewBox="0 0 514.77 570.07">
  <defs>
    <style>
      .cls-1 {
        fill: #4c5656;
      }

      .cls-2 {
        fill: #a5b3b7;
      }

      .cls-3 {
        fill: #b78625;
      }

      .cls-4 {
        fill: #acbbbc;
      }

      .cls-5 {
        fill: #5c6466;
      }

      .cls-6 {
        fill: #5c6b6b;
      }

      .cls-7 {
        fill: #363c3d;
      }

      .cls-8 {
        fill: #9dacb2;
      }

      .cls-9 {
        fill: #98a0a0;
      }

      .cls-10 {
        fill: #d8be4e;
      }

      .cls-11 {
        fill: #5c6263;
      }

      .cls-12 {
        stroke: #ddbb2c;
        stroke-miterlimit: 10;
        stroke-width: 3.87px;
      }

      .cls-12, .cls-13 {
        fill: #cc9f3b;
      }

      .cls-14 {
        fill: #71e2df;
      }

      .cls-15 {
        fill: #696e72;
      }

      .cls-16 {
        fill: #7c8689;
      }

      .cls-17 {
        fill: #57cec8;
      }

      .cls-18 {
        fill: #827865;
      }

      .cls-19 {
        fill: #4d5154;
      }
    </style>
  </defs>
  <g id="Construction_Site" data-name="Construction Site">
    <g>
      <g id="Crane">
        <g>
          <rect class="cls-10" x="162.25" y="180.55" width="5.93" height="374.87"/>
          <rect class="cls-10" x="190.77" y="175.74" width="5.93" height="57.04" transform="translate(-10.52 397.99) rotate(-90)"/>
          <path class="cls-10" d="M197.7,231.79l26.31-26.31-4.19-4.19-26.31,26.31-26.31-26.31-4.19,4.19,26.31,26.31-26.31,26.31,2.21,2.21v4.94h57.04v-5.41l1.75-1.75-26.31-26.31ZM193.5,235.98l23.34,23.34h-46.68l23.34-23.34Z"/>
          <path class="cls-10" d="M197.7,289.82l26.31-26.31-4.19-4.19-26.31,26.31-26.31-26.31-4.19,4.19,26.31,26.31-26.31,26.31,2.21,2.21v4.94h57.04v-5.41l1.75-1.75-26.31-26.31ZM193.5,294.02l23.34,23.34h-46.68l23.34-23.34Z"/>
          <path class="cls-10" d="M197.7,347.85l26.31-26.31-4.19-4.19-26.31,26.31-26.31-26.31-4.19,4.19,26.31,26.31-26.31,26.31,2.21,2.21v4.94h57.04v-5.41l1.75-1.75-26.31-26.31ZM193.5,352.05l23.34,23.34h-46.68l23.34-23.34Z"/>
          <path class="cls-10" d="M197.7,405.89l26.31-26.31-4.19-4.19-26.31,26.31-26.31-26.31-4.19,4.19,26.31,26.31-26.31,26.31,2.21,2.21v4.94h57.04v-5.41l1.75-1.75-26.31-26.31ZM193.5,410.08l23.34,23.34h-46.68l23.34-23.34Z"/>
          <path class="cls-10" d="M197.7,463.92l26.31-26.31-4.19-4.19-26.31,26.31-26.31-26.31-4.19,4.19,26.31,26.31-26.31,26.31,2.21,2.21v4.94h57.04v-5.41l1.75-1.75-26.31-26.31ZM193.5,468.11l23.34,23.34h-46.68l23.34-23.34Z"/>
          <path class="cls-10" d="M197.7,521.95l26.31-26.31-4.19-4.19-26.31,26.31-26.31-26.31-4.19,4.19,26.31,26.31-26.31,26.31,2.21,2.21v4.94h57.04v-5.41l1.75-1.75-26.31-26.31ZM193.5,526.14l23.34,23.34h-46.68l23.34-23.34Z"/>
          <rect class="cls-10" x="219.29" y="180.55" width="5.93" height="374.87"/>
        </g>
        <rect class="cls-8" x="88.66" y="552.14" width="215.15" height="17.93"/>
        <polygon class="cls-10" points="153.97 102.35 213.45 102.35 238.68 127.58 238.68 174.64 153.97 174.64 153.97 102.35"/>
        <rect class="cls-16" x="153.97" y="170.49" width="84.71" height="15.06"/>
        <rect class="cls-16" x="384" y="108" width="48.87" height="15.06"/>
        <polygon class="cls-14" points="191.48 108 209.69 108 230.96 129.27 230.96 156.57 191.71 156.57 191.48 108"/>
        <rect class="cls-10" x="213.45" y="102.35" width="301.32" height="5.65"/>
        <rect class="cls-11" x="163.99" y="38.4" width="320.5" height="5.08" transform="translate(14.76 -64.1) rotate(11.55)"/>
        <rect class="cls-11" x="346.13" y="182.82" width="124.6" height="5.08" transform="translate(593.79 -223.07) rotate(90)"/>
        <rect class="cls-11" x="43.12" y="37.87" width="119.34" height="5.08" transform="translate(-5.24 63.38) rotate(-33.46)"/>
        <rect class="cls-10" x="252.77" y="71.27" width="228.98" height="5.65"/>
        <rect class="cls-10" x="473.26" y="86.81" width="46.3" height="5.65" transform="translate(208.78 -324.76) rotate(45)"/>
        <rect class="cls-10" x="399.8" y="86.81" width="46.3" height="5.65" transform="translate(187.26 -272.82) rotate(45)"/>
        <rect class="cls-10" x="326.34" y="86.81" width="46.3" height="5.65" transform="translate(165.74 -220.87) rotate(45)"/>
        <rect class="cls-10" x="252.88" y="86.81" width="46.3" height="5.65" transform="translate(144.23 -168.93) rotate(45)"/>
        <rect class="cls-10" x="215.53" y="86.81" width="46.3" height="5.65" transform="translate(470.83 -15.75) rotate(135)"/>
        <rect class="cls-10" x="116.59" y="86.81" width="46.3" height="5.65" transform="translate(104.31 -72.56) rotate(45)"/>
        <rect class="cls-10" x="79.25" y="86.81" width="46.3" height="5.65" transform="translate(238.18 80.61) rotate(135)"/>
        <rect class="cls-10" x="50.76" y="86.81" width="46.3" height="5.65" transform="translate(85.03 -26.01) rotate(45)"/>
        <rect class="cls-10" x="13.41" y="86.81" width="46.3" height="5.65" transform="translate(125.79 127.16) rotate(135)"/>
        <rect class="cls-10" x="18.19" y="102.35" width="135.78" height="5.65" transform="translate(172.17 210.35) rotate(180)"/>
        <rect class="cls-10" x="51.02" y="71.27" width="74.46" height="5.65" transform="translate(176.5 148.18) rotate(180)"/>
        <rect class="cls-10" x="119.63" y="58.22" width="82.62" height="5.65" transform="translate(221.98 -99.89) rotate(90)"/>
        <rect class="cls-10" x="136.56" y="59.89" width="95.99" height="5.65" transform="translate(146.59 -128.47) rotate(60)"/>
        <rect class="cls-10" x="158.77" y="63.9" width="28.74" height="5.65"/>
        <rect class="cls-10" x="155.74" y="83.32" width="54.93" height="5.65" transform="translate(105 -100.59) rotate(42.09)"/>
        <rect class="cls-10" x="289.61" y="86.81" width="46.3" height="5.65" transform="translate(597.29 -68.14) rotate(135)"/>
        <rect class="cls-10" x="363.69" y="86.81" width="46.3" height="5.65" transform="translate(723.75 -120.52) rotate(135)"/>
        <rect class="cls-10" x="437.77" y="86.81" width="46.3" height="5.65" transform="translate(850.22 -172.9) rotate(135)"/>
        <rect class="cls-2" x="63.43" y="108" width="62.05" height="24.28"/>
        <circle class="cls-16" cx="160.93" cy="11.89" r="11.89"/>
        <polygon class="cls-10" points="423.05 284.12 392.61 284.12 384.61 246.85 431.05 246.85 423.05 284.12"/>
        <path class="cls-5" d="M405.89,284.12h5.08v15.8c-3.73.69-6.13,2.33-6.13,7.29,0,5.87,11.48,7.25,12.8,0,3.15,3.58,1.11,9.27-8.75,9.14-11.51-.15-13.54-16.52-3-19.63v-12.6Z"/>
        <path class="cls-7" d="M412.3,332.67v-20.83h-3.29v20.83c-10.96.84-19.6,9.98-19.6,21.16,0,11.73,9.51,21.25,21.25,21.25s21.25-9.51,21.25-21.25-8.64-20.32-19.6-21.16Z"/>
      </g>
      <g id="Truck">
        <path class="cls-15" d="M34.24,531.97c-4.58,0-8.29,3.71-8.29,8.29v1.5h-13.55v9.79h179.58v-19.58H34.24Z"/>
        <path class="cls-13" d="M141.36,473.43h39.39c1.25,0,2.43.62,3.13,1.66l21.94,32.39c.42.63.65,1.37.65,2.12v30.44c0,2.09-1.69,3.78-3.78,3.78h-8.18c-.79,0-1.56-.25-2.2-.7l-9.81-7.01c-3.26-2.33-7.17-3.58-11.18-3.58h-29.96c-2.09,0-3.78-1.69-3.78-3.78v-51.54c0-2.09,1.69-3.78,3.78-3.78Z"/>
        <g>
          <circle class="cls-7" cx="45.85" cy="553.94" r="16.13"/>
          <circle class="cls-4" cx="45.85" cy="553.94" r="8.55"/>
          <circle class="cls-6" cx="45.85" cy="553.94" r="4.75"/>
        </g>
        <g>
          <circle class="cls-7" cx="78.12" cy="553.94" r="16.13"/>
          <circle class="cls-4" cx="78.12" cy="553.94" r="8.55"/>
          <circle class="cls-6" cx="78.12" cy="553.94" r="4.75"/>
        </g>
        <g>
          <circle class="cls-7" cx="164.07" cy="553.94" r="16.13"/>
          <circle class="cls-4" cx="164.07" cy="553.94" r="8.55"/>
          <circle class="cls-6" cx="164.07" cy="553.94" r="4.75"/>
        </g>
        <rect class="cls-19" x="100.88" y="521.17" width="4.53" height="10.79"/>
        <path class="cls-18" d="M16.76,467.69s18.81-18.55,24.34-18.83,38.01,5.28,49.3,9.41-73.64,9.41-73.64,9.41Z"/>
        <path class="cls-12" d="M121.58,518.63l-98.1,11.38c-2.01.23-3.91-1.07-4.57-3.12l-16.74-51.94c-.89-2.77.82-5.67,3.52-5.98l108.67-12.61c2.35-.27,4.49,1.54,4.78,4.06l6.17,53.16c.29,2.51-1.37,4.77-3.72,5.04Z"/>
        <path class="cls-17" d="M151.63,479.07h24.9c1.2,0,2.33.59,3.02,1.57l14.01,19.95c1.72,2.45-.03,5.82-3.02,5.82h-38.91c-2.04,0-3.69-1.65-3.69-3.69v-19.95c0-2.04,1.65-3.69,3.69-3.69Z"/>
      </g>
      <g id="Excavator">
        <rect class="cls-15" x="367.47" y="543.34" width="103.15" height="26.73" rx="8.32" ry="8.32"/>
        <rect class="cls-9" x="372.89" y="547" width="92.31" height="19.41" rx="6.95" ry="6.95"/>
        <path class="cls-6" d="M454.2,550.92c-2.58,0-4.77,1.69-5.51,4.02h-59.28c-.75-2.33-2.93-4.02-5.51-4.02-3.2,0-5.79,2.59-5.79,5.79s2.59,5.79,5.79,5.79c2.58,0,4.77-1.69,5.51-4.02h59.28c.75,2.33,2.93,4.02,5.51,4.02,3.2,0,5.79-2.59,5.79-5.79s-2.59-5.79-5.79-5.79Z"/>
        <rect class="cls-1" x="387.61" y="537.02" width="48.56" height="6.32"/>
        <path class="cls-13" d="M415.14,537.02h-35.17c-5.56,0-9.67-5.19-8.39-10.6l11.07-46.75c.92-3.89,4.39-6.63,8.39-6.63h24.1c4.76,0,8.62,3.86,8.62,8.62v46.75c0,4.76-3.86,8.62-8.62,8.62Z"/>
        <path class="cls-13" d="M463.18,537.02h-34c-3,0-5.43-2.43-5.43-5.43v-22.35c0-3,2.43-5.43,5.43-5.43h26.84c2.36,0,4.45,1.53,5.17,3.77l7.16,22.35c1.12,3.5-1.49,7.09-5.17,7.09Z"/>
        <rect class="cls-15" x="436.18" y="498.16" width="14.78" height="5.65"/>
        <path class="cls-3" d="M424.27,480.09h-41.54c-1.33,0-2.29-1.27-1.93-2.54l1.72-6.15c.24-.87,1.03-1.47,1.93-1.47h38.11c.9,0,1.69.6,1.93,1.47l1.72,6.15c.36,1.28-.6,2.54-1.93,2.54Z"/>
        <polygon class="cls-3" points="378.7 496.36 358.16 457.98 321.17 439.62 296.32 466.73 301.4 475.01 324.27 452.05 351.1 467.99 372.89 520.42 378.7 496.36"/>
        <path class="cls-15" d="M301.81,474.23c-11.67-10.23-28.71-9.89-38.06.77-8.4,9.58-7.72,24.24.99,34.54l-1.56,1.73,10.52,9.49,4.46-4.95-7.16-6.45,30.79-35.13Z"/>
        <circle class="cls-1" cx="297.15" cy="472.89" r="7.62"/>
        <path class="cls-17" d="M405.19,515.51h-19.45c-3.25,0-5.67-3.01-4.96-6.19l4.51-20.15c.52-2.32,2.58-3.97,4.96-3.97h14.95c2.8,0,5.08,2.27,5.08,5.08v20.15c0,2.8-2.27,5.08-5.08,5.08Z"/>
      </g>
    </g>
  </g>
</svg>