<?xml version="1.0" encoding="UTF-8"?>
<svg id="Layer_2" data-name="Layer 2" xmlns="http://www.w3.org/2000/svg" viewBox="0 0 34.8 52.23">
  <defs>
    <style>
      .cls-1 {
        fill: #5d6068;
      }

      .cls-2 {
        fill: #c4c7ce;
      }

      .cls-3 {
        fill: #484f5b;
      }
    </style>
  </defs>
  <g id="Music_Speaker" data-name="Music Speaker">
    <g>
      <path class="cls-3" d="M24.89,52.23l-18.48-.55c-3.85-.1-6.74-3.34-6.38-7.23L3.55,6.04C3.91,2.14,7.34-.52,11.14.09l18.22,3.37c3.34.53,5.73,3.84,5.41,7.4l-3.22,35.09c-.33,3.56-3.28,6.37-6.66,6.29Z"/>
      <path class="cls-2" d="M28.03,36.42c-.54,5.91-5.55,10.53-11.34,10.32-5.97-.22-10.48-5.47-9.91-11.72.57-6.25,5.99-10.84,11.93-10.28s9.86,5.77,9.32,11.68Z"/>
      <path class="cls-1" d="M27.27,36.37c-.5,5.48-5.14,9.75-10.5,9.54-5.51-.22-9.67-5.07-9.14-10.84.53-5.77,5.52-10.02,11.01-9.51,5.33.5,9.14,5.33,8.64,10.8Z"/>
      <path class="cls-2" d="M27.24,14.48c-.4,4.32-4.05,7.47-8.24,7.04s-7.5-4.46-7.08-8.95c.41-4.5,4.28-7.63,8.55-7,4.17.61,7.17,4.6,6.77,8.92Z"/>
      <path class="cls-1" d="M26.39,14.38c-.35,3.83-3.59,6.62-7.3,6.23s-6.62-3.95-6.25-7.92c.36-3.97,3.77-6.74,7.55-6.2,3.7.53,6.36,4.06,6.01,7.89Z"/>
      <path class="cls-2" d="M22.28,13.87c-.13,1.47-1.38,2.52-2.8,2.36s-2.48-1.51-2.34-3,1.41-2.54,2.83-2.35,2.44,1.53,2.31,3Z"/>
      <path class="cls-2" d="M20.86,35.94c-.17,1.81-1.71,3.2-3.47,3.1s-3.08-1.68-2.91-3.52,1.75-3.22,3.52-3.09,3.03,1.7,2.86,3.51Z"/>
    </g>
  </g>
</svg>